<svg width="19" height="24" viewBox="0 0 19 24" fill="none" xmlns="http://www.w3.org/2000/svg">
<path d="M18.6966 13.6372C18.4102 9.90869 16.6743 7.57221 15.1428 5.5104C13.7248 3.60161 12.5 1.95327 12.5 -0.478275C12.5 -0.673587 12.3906 -0.852103 12.2172 -0.941605C12.0432 -1.03164 11.8342 -1.0169 11.676 -0.901956C9.37603 0.743845 7.45698 3.51772 6.78662 6.1644C6.32124 8.00703 6.25967 10.0785 6.25103 11.4466C4.127 10.993 3.64585 7.81582 3.64077 7.7812C3.61685 7.6164 3.51616 7.47299 3.36968 7.39468C3.22168 7.31738 3.04771 7.31176 2.89766 7.38603C2.78628 7.43994 0.163769 8.77246 0.0111815 14.0928C0.0004881 14.2698 0 14.4474 0 14.6249C0 19.7936 4.20581 23.9992 9.375 23.9992C9.38213 23.9997 9.38975 24.0007 9.39585 23.9992C9.3979 23.9992 9.3999 23.9992 9.40244 23.9992C14.5589 23.9844 18.75 19.7845 18.75 14.6249C18.75 14.3649 18.6966 13.6372 18.6966 13.6372ZM9.375 22.9576C7.65176 22.9576 6.25 21.4644 6.25 19.6289C6.25 19.5664 6.24951 19.5033 6.25405 19.426C6.2749 18.6519 6.42192 18.1235 6.58315 17.772C6.8853 18.421 7.42544 19.0176 8.30283 19.0176C8.59072 19.0176 8.82368 18.7846 8.82368 18.4968C8.82368 17.7553 8.83896 16.8998 9.02358 16.1277C9.18789 15.4432 9.58052 14.7148 10.078 14.131C10.2992 14.8888 10.7306 15.5021 11.1517 16.1008C11.7544 16.9572 12.3775 17.8427 12.4869 19.3527C12.4935 19.4422 12.5001 19.5323 12.5001 19.6289C12.5 21.4644 11.0982 22.9576 9.375 22.9576Z" fill="white"/>
</svg>
